Coordinates
version=1
nRows=16
nColumns=36
inDegrees=yes

Units are S.I. units (second, meters, Newtons, ...)
If the header above contains a line with 'inDegrees', this indicates whether rotational values are in degrees (yes) or radians (no).

endheader
time	pelvis_tilt	pelvis_list	pelvis_rotation	pelvis_tx	pelvis_ty	pelvis_tz	hip_flexion_r	hip_adduction_r	hip_rotation_r	knee_angle_r	knee_angle_r_beta	ankle_angle_r	subtalar_angle_r	mtp_angle_r	hip_flexion_l	hip_adduction_l	hip_rotation_l	knee_angle_l	knee_angle_l_beta	ankle_angle_l	subtalar_angle_l	mtp_angle_l	lumbar_extension	lumbar_bending	lumbar_rotation	arm_flex_r	arm_add_r	arm_rot_r	elbow_flex_r	pro_sup_r	arm_flex_l	arm_add_l	arm_rot_l	elbow_flex_l	pro_sup_l
      2.46666670	      1.12711771	      4.30873140	     -7.10993364	      0.14385585	      0.84973375	      0.12921905	     10.88889580	      3.34348486	    -10.18186111	     15.10192285	      0.26357828	     10.18261342	     -2.33244924	     -7.49999986	     26.79602906	      0.74540107	      1.81178314	     17.70607133	      0.30902924	     -4.89164733	     -1.81476285	     -7.49999986	     -1.68532923	      0.91306287	     -0.73703695	     43.30213921	      8.93048016	     65.24120762	    128.38167721	     85.89945620	     28.16764204	      4.08029028	     60.23314185	    127.08549870	     77.19829823
      2.48333330	      1.18733696	      4.12827924	     -7.23571556	      0.14352440	      0.85494022	      0.12976828	     10.76503211	      3.50201904	    -10.01816296	     15.05691555	      0.26279275	     10.32105480	     -2.21211697	     -7.49999986	     26.92349842	      0.50807817	      2.20579457	     17.57377682	      0.30672027	     -5.02746269	     -1.64192073	     -7.49999986	     -1.62567308	      1.12034178	     -0.46525675	     43.03183286	      8.97503662	     65.13750382	    128.18608216	     85.85710840	     28.02825552	      4.05432403	     60.01440884	    126.92761595	     77.16563206
      2.50000000	      1.32948424	      4.04978697	     -7.40148546	      0.14409548	      0.85308639	      0.13006361	     10.42305707	      3.57785703	     -9.99662079	     14.87382492	      0.25959722	     10.65438191	     -1.71018913	     -7.49999986	     26.95101336	      0.29759414	      2.51875233	     17.52221736	      0.30582039	     -4.96549904	     -1.71377834	     -7.49999986	     -1.41628377	      1.14142776	     -0.07918716	     42.70604212	      8.99667953	     64.43629583	    127.90932347	     84.30519015	     27.88259785	      4.23445877	     59.43613486	    126.65391701	     75.83247438
      2.51666670	      1.40325917	      3.94955298	     -7.62381983	      0.14337665	      0.85624648	      0.13050895	     10.11777459	      3.74343768	     -9.82796407	     14.75357384	      0.25749844	     10.62507435	     -1.28604251	     -7.49999986	     27.04557236	      0.02380597	      2.63347884	     17.49224444	      0.30529726	     -5.03864765	     -1.71861180	     -7.49999986	     -1.24406918	      1.17435065	      0.16101445	     42.44785910	      8.98290173	     64.38897618	    127.68422691	     84.11746758	     27.60346875	      4.34668051	     59.26234161	    126.51932774	     75.70194796
      2.53333330	      1.70892322	      3.87850724	     -7.99140052	      0.14351687	      0.85589179	      0.13087389	      9.60599486	      3.82588750	     -9.72583240	     14.57616665	      0.25440210	     10.62330655	     -0.75858295	     -7.49999986	     26.91475874	     -0.22386489	      2.72824256	     17.39518392	      0.30360323	     -5.13669695	     -1.87994105	     -7.49999986	     -1.34279454	      1.09286410	      0.36704265	     42.43943007	      9.01666217	     64.38336008	    127.72653751	     83.13494019	     27.38635938	      4.50084162	     58.98312091	    126.44322182	     74.76433292
      2.55000000	      1.93126046	      3.83598577	     -8.16152841	      0.14331982	      0.85519242	      0.13120233	      9.03878820	      3.93947751	     -9.68722353	     14.35544926	      0.25054986	     10.73617747	     -0.09105723	     -7.49999986	     26.92143479	     -0.37248777	      2.72535298	     17.30264099	      0.30198805	     -5.27354406	     -2.09611647	     -7.49999986	     -1.29462373	      1.02379324	      0.57252229	     42.51643698	      8.95777271	     64.54620426	    127.69637462	     81.84220285	     27.37557614	      4.56585398	     58.85834533	    126.31819066	     73.63935089
      2.56666670	      1.90740249	      3.65562286	     -8.28094472	      0.14409599	      0.85267379	      0.13134104	      8.84101065	      4.17676035	     -9.60471354	     14.44719344	      0.25215109	     10.89053696	      0.15241340	     -7.49999986	     27.21846350	     -0.69759342	      2.60887001	     17.21093920	      0.30038756	     -5.05012449	     -2.06042325	     -7.49999986	     -1.01285603	      1.20172065	      0.72363958	     42.45079068	      8.84115382	     64.61870789	    127.93713365	     80.87137899	     27.24370132	      4.73949642	     58.68145147	    126.34515657	     72.83905638
      2.58333330	      2.19015673	      3.36986268	     -8.34832277	      0.14401533	      0.85026214	      0.13082252	      8.57705424	      4.43059643	     -9.75180586	     14.85921965	      0.25934231	     11.30614744	      0.44087244	     -7.49999986	     27.23086879	     -0.98245786	      2.69299660	     17.20651839	      0.30031040	     -4.49417750	     -2.20519258	     -7.49999986	     -1.20714014	      1.45935128	      0.90042341	     42.81345158	      8.64855183	     64.74413888	    128.10899635	     80.38190290	     27.46778979	      4.89286812	     58.69314505	    126.27231754	     72.39713089
      2.60000000	      2.23381026	      3.08708359	     -8.34496052	      0.14429843	      0.85284118	      0.13016271	      8.51396778	      4.69592575	    -10.00475249	     15.17597104	      0.26487066	     11.22856645	      0.62196423	     -7.49999986	     27.37879410	     -1.24378178	      2.64574418	     17.01527594	      0.29697259	     -4.31416510	     -2.28020296	     -7.49999986	     -1.17478960	      1.70716983	      0.79602767	     42.80048864	      8.33890471	     64.79223865	    128.39506775	     80.17496871	     27.77830396	      5.23022684	     58.70694936	    126.09031384	     72.17729769
      2.61666670	      2.31987625	      2.77754627	     -8.42001716	      0.14549209	      0.85138870	      0.13052495	      8.47198649	      4.98517815	    -10.33136240	     15.42584828	      0.26923184	     10.95329351	      0.83517827	     -7.49999986	     27.42847194	     -1.57385112	      2.66718444	     16.74704399	      0.29229106	     -4.43200327	     -2.27492482	     -7.49999986	     -1.16774739	      1.91329873	      0.97405868	     42.76158438	      8.14872815	     64.49658795	    128.58211877	     84.60784630	     28.03915346	      5.62477386	     58.77879362	    125.80081489	     74.64566199
      2.63333330	      2.28468419	      2.64022320	     -8.40645591	      0.14408960	      0.85182703	      0.12971350	      8.50777632	      5.14222480	    -10.47711196	     15.60343526	      0.27233132	     10.72335048	      0.75306090	     -7.49999987	     27.51968696	     -1.66135042	      2.61033899	     16.51447439	      0.28823195	     -4.35939702	     -2.18172659	     -7.49999987	     -0.95011759	      1.98582758	      0.83645537	     42.73186667	      8.06263877	     64.54492073	    128.63964489	     84.10761334	     28.25006296	      5.84328165	     58.77568469	    125.61659658	     74.30277546
      2.65000000	      2.17719698	      2.49183223	     -8.44144221	      0.14359300	      0.85397229	      0.13074442	      8.66811713	      5.34056567	    -10.64136666	     15.45353962	      0.26971515	     10.67123775	      0.46784349	     -7.49999987	     27.66842627	     -1.78581855	      2.40972444	     16.13332456	      0.28157963	     -4.51266208	     -1.84437176	     -7.49999987	     -0.76922024	      2.02774698	      0.78450994	     42.45509893	      7.87473347	     64.71046080	    128.94566463	     82.77219821	     28.09495736	      6.03820230	     58.97190138	    125.50103489	     73.22389689
      2.66666670	      2.32014467	      2.27718357	     -8.52464060	      0.14374608	      0.84982875	      0.12995264	      8.69209501	      5.58275813	    -10.73917278	     15.67751325	      0.27362422	     10.39504142	      0.58085005	     -7.49999987	     27.60279240	     -1.88645681	      2.29493315	     15.86410356	      0.27688084	     -4.28149451	     -1.88012467	     -7.49999987	     -0.86232887	      2.10658817	      0.65492265	     42.58688375	      7.74343640	     64.63196259	    128.87021731	     82.79448975	     28.16483715	      6.19529922	     59.07300279	    125.56926720	     73.24242192
      2.68333330	      2.51487667	      2.37690104	     -8.50922819	      0.14468942	      0.85117981	      0.12917333	      8.46471961	      5.38216703	    -10.90206808	     15.52719351	      0.27100065	     10.98052405	      0.71787230	     -7.49999987	     27.46160163	     -1.64851316	      2.15221619	     15.80007568	      0.27576334	     -3.97934460	     -1.47290974	     -7.49999987	     -1.07603912	      1.90354108	      0.70710438	     42.59267259	      7.60796861	     64.66302774	    128.99220353	     82.19327480	     28.17855140	      6.24128897	     59.52627516	    125.69747455	     72.69597961
      2.70000000	      2.32879923	      2.42233983	     -8.67039276	      0.14478240	      0.85123500	      0.12949862	      8.52728912	      5.36753723	    -10.85030226	     15.28852388	      0.26683508	     11.37614866	      0.55169264	     -7.49999987	     27.73832244	     -1.60772933	      1.95580233	     15.81923617	      0.27609776	     -3.89762868	     -1.41488409	     -7.49999987	     -0.81447618	      1.81891640	      0.75032592	     42.47935797	      7.55284005	     64.63181288	    129.10408606	     81.28623774	     27.99190017	      6.34158965	     59.75019916	    125.84755246	     71.99236779
      2.71666670	      2.28655149	      2.45313657	     -8.68760197	      0.14518996	      0.84993670	      0.12959160	      8.45939531	      5.38515535	    -10.64118267	     15.13362492	      0.26413158	     11.91870545	      0.41970588	     -7.49999987	     27.94300044	     -1.50895195	      1.85039923	     15.96083758	      0.27856917	     -3.54047263	     -1.46183594	     -7.49999987	     -0.70208732	      1.74105169	      0.70384737	     42.52854440	      7.47626893	     64.59601291	    128.88457057	     81.05383241	     27.99903356	      6.33404225	     59.88390085	    125.88101278	     71.86715216
